<!-- Generated by IcoMoon.io -->
<svg version="1.1" xmlns="http://www.w3.org/2000/svg" width="32" height="32" viewBox="0 0 32 32">
<title>icon-deselect</title>
<path fill="#0B42A2" opacity="0.12" d="M32 16c0 8.837-7.163 16-16 16s-16-7.163-16-16c0-8.837 7.163-16 16-16s16 7.163 16 16z"></path>
<path fill="#0B42A2" d="M18.262 16l2.869-2.869c0.301-0.291 0.488-0.699 0.488-1.151 0-0.884-0.716-1.6-1.6-1.6-0.452 0-0.86 0.187-1.15 0.488l-2.869 2.869-2.869-2.869c-0.287-0.278-0.68-0.449-1.112-0.449-0.884 0-1.6 0.716-1.6 1.6 0 0.432 0.171 0.824 0.45 1.112l2.868 2.868-2.869 2.869c-0.278 0.287-0.449 0.68-0.449 1.112 0 0.884 0.716 1.6 1.6 1.6 0.432 0 0.824-0.171 1.112-0.45l2.868-2.868 2.869 2.869c0.287 0.278 0.68 0.449 1.112 0.449 0.884 0 1.6-0.716 1.6-1.6 0-0.432-0.171-0.824-0.45-1.112l-2.868-2.868z"></path>
</svg>
