<svg xmlns="http://www.w3.org/2000/svg" width="15" height="16" viewBox="0 0 15 16">
    <g fill="none" fill-rule="evenodd">
        <path d="M0 0h16v16H0z"/>
        <path fill="#2F383F" fill-rule="nonzero" d="M2 12v-2H.5a.5.5 0 0 1 0-1H2V7H.5a.5.5 0 0 1 0-1H2V4H.5a.5.5 0 0 1 0-1H2V.5a.5.5 0 0 1 .5-.5h12a.5.5 0 0 1 .5.5v15a.5.5 0 0 1-.5.5h-12a.5.5 0 0 1-.5-.5V13H.5a.5.5 0 1 1 0-1H2zm12 3V1H3v14h11zM7.009 7.833A2 2 0 1 1 8.5 8.5 2.5 2.5 0 0 0 6 11h5c0-.78-.36-1.5-.963-1.972a.5.5 0 0 1 .615-.788A3.494 3.494 0 0 1 12 11v.5a.5.5 0 0 1-.5.5h-6a.5.5 0 0 1-.5-.5V11a3.5 3.5 0 0 1 2.009-3.167zM8.5 7.5a1 1 0 1 0 0-2 1 1 0 0 0 0 2z"/>
    </g>
</svg>
