<svg xmlns="http://www.w3.org/2000/svg" width="26" height="26" viewBox="0 0 26 26">
    <g fill="none" fill-rule="evenodd">
        <path d="M-1-1h28v28H-1z"/>
        <path stroke="#000" stroke-linejoin="round" stroke-width="2" d="M7 17c4.118-4.785 6.951-7.951 8.5-9.5 1.442-1.442 3.708-3.419 6.799-5.932a1 1 0 0 1 1.338.069l.724.724a1 1 0 0 1 .066 1.34c-2.633 3.215-4.609 5.48-5.927 6.799-1.412 1.412-4.579 4.246-9.5 8.5l-2-2zM14.5 8.5l3 3"/>
        <path stroke="#000" stroke-linecap="round" stroke-linejoin="round" stroke-width="1.2" d="M4.5 21.5L2 24"/>
        <path stroke="#000" stroke-linejoin="round" stroke-width="2" d="M2 20l5-3 2 2-3 5-5 1z"/>
    </g>
</svg>
