<!-- Generated by IcoMoon.io -->
<svg version="1.1" xmlns="http://www.w3.org/2000/svg" width="32" height="32" viewBox="0 0 32 32">
<title>icon-legal</title>
<path d="M11.698 10l5.302 5.302 3.302-3.302-5.302-5.302-3.302 3.302zM10 8.302l6.152-6.15c0.214-0.2 0.502-0.322 0.818-0.322 0.663 0 1.2 0.537 1.2 1.2 0 0.316-0.123 0.604-0.323 0.819l-1.147 1.151 5.3 5.302 1.152-1.15c0.214-0.2 0.502-0.322 0.818-0.322 0.663 0 1.2 0.537 1.2 1.2 0 0.316-0.123 0.604-0.323 0.819l-6.147 6.151 11.15 11.152c0.2 0.214 0.322 0.502 0.322 0.818 0 0.663-0.537 1.2-1.2 1.2-0.316 0-0.604-0.123-0.819-0.323l-11.153-11.147-6.152 6.15c-0.214 0.2-0.502 0.322-0.818 0.322-0.663 0-1.2-0.537-1.2-1.2 0-0.316 0.123-0.604 0.323-0.819l1.147-1.153-5.3-5.302-1.152 1.15c-0.214 0.2-0.502 0.322-0.818 0.322-0.663 0-1.2-0.537-1.2-1.2 0-0.316 0.123-0.604 0.323-0.819l6.147-6.151-1.15-1.152c-0.2-0.214-0.322-0.502-0.322-0.818 0-0.663 0.537-1.2 1.2-1.2 0.316 0 0.604 0.123 0.819 0.323l1.153 1.147zM10 11.7l-3.302 3.3 5.302 5.302 3.302-3.302-5.302-5.302zM3 30.2c-0.663 0-1.2-0.537-1.2-1.2s0.537-1.2 1.2-1.2h12c0.663 0 1.2 0.537 1.2 1.2s-0.537 1.2-1.2 1.2h-12z"></path>
</svg>
