<svg xmlns="http://www.w3.org/2000/svg" width="52" height="52" viewBox="0 0 42 42">
    <g fill="none" fill-rule="evenodd">
        <circle cx="21" cy="21" r="20.5" stroke="#E8EBED"/>
        <path d="M13 13h16v16H13z"/>
        <path fill="#8E979E" fill-rule="nonzero" d="M20.1 26h-5.6a.5.5 0 0 1-.5-.5v-12a.5.5 0 0 1 .5-.5h7a.5.5 0 0 1 .354.146l3 3A.5.5 0 0 1 24.5 17h-3a.5.5 0 0 1-.5-.5V14h-6v11h5c0 .342.034.677.1 1zm4.9-6c-.342 0-.677.034-1 .1V18a.5.5 0 1 1 1 0v2zm-3-4h1.293L22 14.707V16zm-.165 5.129A5.03 5.03 0 0 0 21 22h-3.5a.5.5 0 0 1 0-1h4c.129 0 .246.049.335.129zM17.5 20a.5.5 0 0 1 0-1h4a.5.5 0 0 1 0 1h-4zm7.5 9a4 4 0 1 1 0-8 4 4 0 0 1 0 8zm0-1a3 3 0 1 0 0-6 3 3 0 0 0 0 6zm1.146-4.354a.5.5 0 0 1 .708.708l-2 2a.5.5 0 0 1-.708 0l-1-1a.5.5 0 0 1 .708-.708l.646.647 1.646-1.647z"/>
    </g>
</svg>
