<!-- Generated by IcoMoon.io -->
<svg version="1.1" xmlns="http://www.w3.org/2000/svg" width="34" height="32" viewBox="0 0 34 32">
<title>icon-arap</title>
<path d="M29.714 0c2.525 0 4.571 2.047 4.571 4.571v25.143c0 1.28-1.006 2.286-2.286 2.286h-22.857c-1.28 0-2.286-1.006-2.286-2.286v-20.571h-3.886c-1.262 0-2.286-1.023-2.286-2.286 0-3.787 2.743-6.857 6.171-6.857h22.857zM9.6 2.743v26.514h21.943v-24.686c0-1.010-0.819-1.829-1.829-1.829h-20.114zM3.429 6.857h3.429v-4.114c-2.057 0-3.429 2.057-3.429 4.114zM13.714 23.314c-0.757 0-1.371-0.614-1.371-1.371s0.614-1.371 1.371-1.371h11.429c0.757 0 1.371 0.614 1.371 1.371s-0.614 1.371-1.371 1.371h-11.429zM13.714 18.743c-0.757 0-1.371-0.614-1.371-1.371s0.614-1.371 1.371-1.371h9.143c0.757 0 1.371 0.614 1.371 1.371s-0.614 1.371-1.371 1.371h-9.143zM13.714 14.171c-0.757 0-1.371-0.614-1.371-1.371s0.614-1.371 1.371-1.371h13.714c0.757 0 1.371 0.614 1.371 1.371s-0.614 1.371-1.371 1.371h-13.714z"></path>
</svg>
