<!-- Generated by IcoMoon.io -->
<svg version="1.1" xmlns="http://www.w3.org/2000/svg" width="32" height="32" viewBox="0 0 32 32">
<title>icon-info</title>
<path fill="#457299" d="M16 32c-8.837 0-16-7.163-16-16s7.163-16 16-16c8.837 0 16 7.163 16 16s-7.163 16-16 16zM16 29.6c7.511 0 13.6-6.089 13.6-13.6s-6.089-13.6-13.6-13.6c-7.511 0-13.6 6.089-13.6 13.6s6.089 13.6 13.6 13.6zM14.6 15.2c0-0.773 0.627-1.4 1.4-1.4s1.4 0.627 1.4 1.4v8c0 0.773-0.627 1.4-1.4 1.4s-1.4-0.627-1.4-1.4v-8zM16 12c-1.105 0-2-0.895-2-2s0.895-2 2-2c1.105 0 2 0.895 2 2s-0.895 2-2 2z"></path>
</svg>
