<!-- Generated by IcoMoon.io -->
<svg version="1.1" xmlns="http://www.w3.org/2000/svg" width="32" height="32" viewBox="0 0 32 32">
<title>icon-error</title>
<path d="M16 32c-8.837 0-16-7.163-16-16s7.163-16 16-16c8.837 0 16 7.163 16 16s-7.163 16-16 16zM16 29.6c7.511 0 13.6-6.089 13.6-13.6s-6.089-13.6-13.6-13.6c-7.511 0-13.6 6.089-13.6 13.6s6.089 13.6 13.6 13.6zM16 24.8c-1.105 0-2-0.895-2-2s0.895-2 2-2c1.105 0 2 0.895 2 2s-0.895 2-2 2zM14.2 9.5c0-0.96 0.426-2 1.8-2 1.376 0 1.8 1.056 1.8 2l-0.6 8.2c0 0.64-0.606 1.2-1.2 1.2s-1.2-0.55-1.2-1.2l-0.6-8.2z"></path>
</svg>
