<svg xmlns="http://www.w3.org/2000/svg" width="12" height="12" viewBox="0 0 12 12">
    <g fill="none" fill-rule="evenodd">
        <path d="M-2-2h16v16H-2z"/>
        <path fill="#000" fill-rule="nonzero" d="M5.207 3.793a1 1 0 0 1-1.414 1.414l-2.5-2.5a1 1 0 0 1 1.414-1.414l2.5 2.5z"/>
        <path fill="#000" fill-rule="nonzero" d="M2 2v2.5a1 1 0 1 1-2 0V1a1 1 0 0 1 1-1h3.5a1 1 0 1 1 0 2H2zM10.707 9.293a1 1 0 0 1-1.414 1.414l-2.5-2.5a1 1 0 0 1 1.414-1.414l2.5 2.5z"/>
        <path fill="#000" fill-rule="nonzero" d="M10 10V7.5a1 1 0 0 1 2 0V11a1 1 0 0 1-1 1H7.5a1 1 0 0 1 0-2H10z"/>
    </g>
</svg>
