<svg xmlns="http://www.w3.org/2000/svg" width="16" height="16" viewBox="0 0 16 16">
    <g fill="none" fill-rule="evenodd">
        <path d="M0 0h16v16H0z"/>
        <path fill="#2F383F" fill-rule="nonzero" d="M8.39 15.313a.5.5 0 0 1-.78 0C4.207 11.066 2.5 7.995 2.5 6a5.5 5.5 0 0 1 11 0c0 1.995-1.707 5.066-5.11 9.313zM8 14.196c3.003-3.817 4.5-6.577 4.5-8.196a4.5 4.5 0 1 0-9 0c0 1.619 1.497 4.38 4.5 8.196zM8 8.5a2.5 2.5 0 1 1 0-5 2.5 2.5 0 0 1 0 5zm0-1a1.5 1.5 0 1 0 0-3 1.5 1.5 0 0 0 0 3z"/>
    </g>
</svg>
