<!-- Generated by IcoMoon.io -->
<svg version="1.1" xmlns="http://www.w3.org/2000/svg" width="46" height="32" viewBox="0 0 46 32">
<title>icon-arrow-right</title>
<path fill="#88B2FC" d="M36.768 13.714h-33.271c-1.262 0-2.286 1.023-2.286 2.286s1.023 2.286 2.286 2.286h33.269l-8.67 8.67c-0.397 0.411-0.642 0.971-0.642 1.588 0 1.262 1.023 2.286 2.286 2.286 0.617 0 1.177-0.245 1.589-0.642l12.571-12.571c0.413-0.414 0.669-0.985 0.669-1.616s-0.256-1.202-0.669-1.616l-12.571-12.571c-0.411-0.397-0.971-0.642-1.588-0.642-1.262 0-2.286 1.023-2.286 2.286 0 0.617 0.245 1.177 0.642 1.589l8.671 8.669z"></path>
</svg>
