<!-- Generated by IcoMoon.io -->
<svg version="1.1" xmlns="http://www.w3.org/2000/svg" width="28" height="32" viewBox="0 0 28 32">
<title>icon-innetwork</title>
<path d="M4.102 1.8h19.796c1.767 0 3.2 1.433 3.2 3.2l-0.004 0.16-0.694 13.88c-0.148 4.4-3.896 8.244-11.022 11.642-0.403 0.197-0.877 0.312-1.378 0.312s-0.975-0.115-1.397-0.32c-7.107-3.39-10.855-7.232-11.001-11.614l-0.696-13.9c-0.003-0.048-0.004-0.104-0.004-0.16 0-1.711 1.343-3.108 3.032-3.196l0.168-0.004zM4.102 4.2c-0.48 0.024-0.82 0.4-0.8 0.84l0.698 13.92c0.108 3.28 3.252 6.502 9.656 9.556 0.101 0.049 0.219 0.078 0.344 0.078s0.243-0.029 0.349-0.080c6.399-3.052 9.543-6.274 9.653-9.574l0.694-13.9c0-0.48-0.356-0.84-0.8-0.84h-19.792zM9.79 14.010l2.51 2.51 6.010-6.010c0.253-0.253 0.603-0.41 0.99-0.41 0.773 0 1.4 0.627 1.4 1.4 0 0.387-0.157 0.737-0.41 0.99l-7 7c-0.253 0.253-0.603 0.41-0.99 0.41s-0.737-0.157-0.99-0.41l-3.5-3.5c-0.253-0.253-0.41-0.603-0.41-0.99 0-0.773 0.627-1.4 1.4-1.4 0.387 0 0.737 0.157 0.99 0.41z"></path>
</svg>
