<svg xmlns="http://www.w3.org/2000/svg" width="15" height="4" viewBox="0 0 15 4">
    <g fill="none" fill-rule="evenodd">
        <path d="M-.522-6h16.044v16H-.522z"/>
        <path fill="#1266FA" d="M13.015 3.5c-.83 0-1.504-.672-1.504-1.5S12.185.5 13.015.5c.831 0 1.504.672 1.504 1.5s-.673 1.5-1.504 1.5zM7.5 3.5c-.83 0-1.504-.672-1.504-1.5S6.669.5 7.5.5c.83 0 1.504.672 1.504 1.5S8.331 3.5 7.5 3.5zm-5.515 0C1.154 3.5.48 2.828.48 2S1.154.5 1.985.5c.83 0 1.504.672 1.504 1.5s-.674 1.5-1.504 1.5z"/>
    </g>
</svg>
