<!-- Generated by IcoMoon.io -->
<svg version="1.1" xmlns="http://www.w3.org/2000/svg" width="29" height="32" viewBox="0 0 29 32">
<title>icon-trash</title>
<path d="M26.294 9.6l-0.646 19.299c-0.055 1.724-1.466 3.101-3.198 3.101-0.001 0-0.001 0-0.002 0h-16.096c-0 0-0.001 0-0.002 0-1.731 0-3.141-1.374-3.198-3.091l-0.647-19.309h3.203l0.642 19.2 16.099-0.003 0.642-19.197h3.203zM9.6 12.8c0-0.884 0.716-1.6 1.6-1.6s1.6 0.716 1.6 1.6v11.2c0 0.884-0.716 1.6-1.6 1.6s-1.6-0.716-1.6-1.6v-11.2zM16 12.8c0-0.884 0.716-1.6 1.6-1.6s1.6 0.716 1.6 1.6v11.2c0 0.884-0.716 1.6-1.6 1.6s-1.6-0.716-1.6-1.6v-11.2zM8 4.8v-1.6c0-1.767 1.433-3.2 3.2-3.2h6.4c1.767 0 3.2 1.433 3.2 3.2v1.6h6.4c0.884 0 1.6 0.716 1.6 1.6s-0.716 1.6-1.6 1.6h-25.6c-0.884 0-1.6-0.716-1.6-1.6s0.716-1.6 1.6-1.6h6.4zM11.2 3.2v1.6h6.4v-1.6h-6.4z"></path>
</svg>
