<!-- Generated by IcoMoon.io -->
<svg version="1.1" xmlns="http://www.w3.org/2000/svg" width="32" height="32" viewBox="0 0 32 32">
<title>icon-message</title>
<path d="M25.143 22.857v6.384c-0 0.631-0.512 1.143-1.143 1.143-0.316 0-0.602-0.128-0.809-0.336l-7.191-7.191h-11.429c-2.525 0-4.571-2.047-4.571-4.571v-13.714c0-2.525 2.047-4.571 4.571-4.571h22.857c2.525 0 4.571 2.047 4.571 4.571v13.714c0 2.525-2.047 4.571-4.571 4.571h-2.286zM23.314 13.714c1.262 0 2.286-1.023 2.286-2.286s-1.023-2.286-2.286-2.286c-1.262 0-2.286 1.023-2.286 2.286s1.023 2.286 2.286 2.286zM16 13.714c1.262 0 2.286-1.023 2.286-2.286s-1.023-2.286-2.286-2.286c-1.262 0-2.286 1.023-2.286 2.286s1.023 2.286 2.286 2.286zM8.686 13.714c1.262 0 2.286-1.023 2.286-2.286s-1.023-2.286-2.286-2.286c-1.262 0-2.286 1.023-2.286 2.286s1.023 2.286 2.286 2.286z"></path>
</svg>
