<svg xmlns="http://www.w3.org/2000/svg" width="12" height="10" viewBox="0 0 12 10">
  <g fill="none" fill-rule="evenodd" transform="translate(-2 -3)">
    <rect width="16" height="16"/>
    <path fill="#FFFFFF" fill-opacity=".24" fill-rule="nonzero" d="M10.5857864,9 L3,9 C2.44771525,9 2,8.55228475 2,8 C2,7.44771525 2.44771525,7 3,7 L10.5857864,7 L8.79289322,5.20710678 C8.40236893,4.81658249 8.40236893,4.18341751 8.79289322,3.79289322 C9.18341751,3.40236893 9.81658249,3.40236893 10.2071068,3.79289322 L13.7071068,7.29289322 C14.0976311,7.68341751 14.0976311,8.31658249 13.7071068,8.70710678 L10.2071068,12.2071068 C9.81658249,12.5976311 9.18341751,12.5976311 8.79289322,12.2071068 C8.40236893,11.8165825 8.40236893,11.1834175 8.79289322,10.7928932 L10.5857864,9 Z"/>
  </g>
</svg>
