<!-- Generated by IcoMoon.io -->
<svg version="1.1" xmlns="http://www.w3.org/2000/svg" width="41" height="32" viewBox="0 0 41 32">
<title>icon-clientprofile</title>
<path d="M9.455 2.909c-0.803 0-1.455-0.651-1.455-1.455s0.651-1.455 1.455-1.455h28.364c1.607 0 2.909 1.302 2.909 2.909v26.182c0 1.607-1.302 2.909-2.909 2.909h-34.909c-1.607 0-2.909-1.302-2.909-2.909v-26.182c0-1.607 1.302-2.909 2.909-2.909h1.455c0.803 0 1.455 0.651 1.455 1.455s-0.651 1.455-1.455 1.455h-1.455v26.182h34.909v-26.182h-28.364zM7.273 21.818v-11.636c0-1.607 1.302-2.909 2.909-2.909h8.727c1.607 0 2.909 1.302 2.909 2.909v11.636c0.803 0 1.455 0.651 1.455 1.455s-0.651 1.455-1.455 1.455h-14.545c-0.803 0-1.455-0.651-1.455-1.455s0.651-1.455 1.455-1.455zM10.182 10.182v11.636h8.727v-11.636h-8.727zM13.091 20.364v-2.909c0-0.803 0.651-1.455 1.455-1.455s1.455 0.651 1.455 1.455v2.909h-2.909zM26.909 13.091c-0.803 0-1.455-0.651-1.455-1.455s0.651-1.455 1.455-1.455h6.545c0.803 0 1.455 0.651 1.455 1.455s-0.651 1.455-1.455 1.455h-6.545zM26.909 18.909c-0.803 0-1.455-0.651-1.455-1.455s0.651-1.455 1.455-1.455h5.091c0.803 0 1.455 0.651 1.455 1.455s-0.651 1.455-1.455 1.455h-5.091z"></path>
</svg>
