<!-- Generated by IcoMoon.io -->
<svg version="1.1" xmlns="http://www.w3.org/2000/svg" width="46" height="32" viewBox="0 0 46 32">
<title>icon-arrow-left</title>
<path fill="#88B2FC" d="M8.946 18.286h33.339c1.262 0 2.286-1.023 2.286-2.286s-1.023-2.286-2.286-2.286h-33.339l8.67-8.67c0.397-0.411 0.642-0.971 0.642-1.588 0-1.262-1.023-2.286-2.286-2.286-0.617 0-1.177 0.245-1.589 0.642l-12.571 12.571c-0.413 0.414-0.669 0.985-0.669 1.616s0.256 1.202 0.669 1.616l12.571 12.571c0.416 0.431 0.999 0.698 1.644 0.698 1.262 0 2.286-1.023 2.286-2.286 0-0.645-0.267-1.228-0.697-1.643l-8.67-8.67z"></path>
</svg>
