<!-- Generated by IcoMoon.io -->
<svg version="1.1" xmlns="http://www.w3.org/2000/svg" width="43" height="32" viewBox="0 0 43 32">
<title>icon-teams</title>
<path d="M41.143 32h-39.619c-0.842 0-1.524-0.682-1.524-1.524v-6.857c0-0 0-0 0-0 0-5.38 3.279-9.994 7.947-11.953-1.113-1.265-1.852-2.951-1.852-4.809 0-3.787 3.070-6.857 6.857-6.857s6.857 3.070 6.857 6.857c0 1.858-0.739 3.543-1.939 4.778 4.756 1.989 8.035 6.603 8.035 11.983v5.333h13.714v-5.333c0-0.001 0-0.002 0-0.003 0-5.47-4.434-9.905-9.905-9.905-1.349 0-2.636 0.27-3.808 0.758-0.108 0.050-0.31 0.094-0.523 0.094-0.842 0-1.524-0.682-1.524-1.524 0-0.629 0.381-1.169 0.926-1.402-1.189-1.237-1.928-2.923-1.928-4.781 0-3.787 3.070-6.857 6.857-6.857s6.857 3.070 6.857 6.857c0 1.858-0.739 3.543-1.939 4.778 4.755 1.989 8.034 6.603 8.034 11.983 0 0 0 0 0 0v6.857c0 0.842-0.682 1.524-1.524 1.524zM22.857 28.952v-5.333c0-5.47-4.434-9.905-9.905-9.905s-9.905 4.434-9.905 9.905v5.333h19.81zM29.714 10.667c2.104 0 3.81-1.706 3.81-3.81s-1.706-3.81-3.81-3.81c-2.104 0-3.81 1.706-3.81 3.81s1.706 3.81 3.81 3.81zM12.952 10.667c2.104 0 3.81-1.706 3.81-3.81s-1.706-3.81-3.81-3.81c-2.104 0-3.81 1.706-3.81 3.81s1.706 3.81 3.81 3.81z"></path>
</svg>
