<!-- Generated by IcoMoon.io -->
<svg version="1.1" xmlns="http://www.w3.org/2000/svg" width="32" height="32" viewBox="0 0 32 32">
<title>icon-attachment</title>
<path d="M13.307 16.133l8.187 8.185c0.785 0.782 1.868 1.266 3.064 1.266 2.398 0 4.343-1.944 4.343-4.343 0-1.196-0.484-2.279-1.266-3.065l-13.035-13.033c-1.208-1.253-2.9-2.031-4.775-2.031-3.661 0-6.629 2.968-6.629 6.629 0 1.874 0.777 3.566 2.027 4.772l14.996 14.998c0.27 0.251 0.438 0.608 0.438 1.004 0 0.757-0.614 1.371-1.371 1.371-0.395 0-0.751-0.167-1.002-0.435l-14.997-14.995c-1.697-1.696-2.747-4.040-2.747-6.629 0-5.176 4.196-9.372 9.372-9.372 2.587 0 4.929 1.048 6.625 2.743l13.033 13.035c1.298 1.285 2.102 3.067 2.102 5.037 0 3.913-3.172 7.086-7.086 7.086-1.97 0-3.752-0.804-5.036-2.101l-8.183-8.186c-0.869-0.869-1.406-2.069-1.406-3.394 0-2.651 2.149-4.8 4.8-4.8 1.326 0 2.526 0.537 3.394 1.406l4.848 4.85c0.243 0.247 0.393 0.587 0.393 0.961 0 0.757-0.614 1.371-1.371 1.371-0.375 0-0.715-0.151-0.963-0.395l-4.846-4.846c-0.372-0.373-0.887-0.604-1.456-0.604-1.136 0-2.057 0.921-2.057 2.057 0 0.568 0.23 1.082 0.601 1.454z"></path>
</svg>
