<!-- Generated by IcoMoon.io -->
<svg version="1.1" xmlns="http://www.w3.org/2000/svg" width="32" height="32" viewBox="0 0 32 32">
<title>icon-cancel</title>
<path d="M3.035 0.521c-0.324-0.335-0.777-0.543-1.279-0.543-0.982 0-1.778 0.796-1.778 1.778 0 0.502 0.208 0.955 0.542 1.278l12.966 12.966-12.965 12.965c-0.309 0.319-0.499 0.755-0.499 1.235 0 0.982 0.796 1.778 1.778 1.778 0.48 0 0.916-0.19 1.236-0.5l12.965-12.965 12.965 12.965c0.319 0.309 0.755 0.499 1.235 0.499 0.982 0 1.778-0.796 1.778-1.778 0-0.48-0.19-0.916-0.5-1.236l-12.965-12.965 12.965-12.965c0.335-0.324 0.543-0.777 0.543-1.279 0-0.982-0.796-1.778-1.778-1.778-0.502 0-0.955 0.208-1.278 0.542l-12.966 12.966-12.965-12.965z"></path>
</svg>
