<svg xmlns="http://www.w3.org/2000/svg" width="28" height="25" viewBox="0 0 28 25">
    <g fill="none" fill-rule="evenodd" transform="translate(0 -1)">
        <path d="M0 0h28v27.364H0z"/>
        <path fill="#000" fill-rule="nonzero" d="M5.6 23.601h16.8V5.131c0-.756-.627-1.368-1.4-1.368H7c-.773 0-1.4.612-1.4 1.368V23.6zM7 1.711h14c1.933 0 3.5 1.53 3.5 3.42v20.522h-21V5.131c0-1.89 1.567-3.42 3.5-3.42z"/>
        <path fill="#000" fill-rule="nonzero" d="M12.775 23.943c0 .567-.47 1.026-1.05 1.026-.58 0-1.05-.46-1.05-1.026V18.47c0-1.322 1.097-2.394 2.45-2.394h1.75c1.353 0 2.45 1.072 2.45 2.394v3.164c0 .567-.47 1.027-1.05 1.027-.58 0-1.05-.46-1.05-1.027V18.47a.346.346 0 0 0-.35-.342h-1.75a.346.346 0 0 0-.35.342v5.473z"/>
        <rect width="8.75" height="2.052" x="9.625" y="10.261" fill="#000" rx=".6"/>
        <rect width="8.75" height="2.052" x="9.625" y="6.841" fill="#000" rx=".6"/>
        <rect width="26.25" height="2.052" x=".875" y="23.601" fill="#000" rx=".6"/>
    </g>
</svg>
