<!-- Generated by IcoMoon.io -->
<svg version="1.1" xmlns="http://www.w3.org/2000/svg" width="38" height="32" viewBox="0 0 38 32">
<title>icon-arrow-right-small</title>
<path d="M27.475 19.2h-24.275c-1.767 0-3.2-1.433-3.2-3.2s1.433-3.2 3.2-3.2h24.275l-5.738-5.738c-0.603-0.583-0.977-1.399-0.977-2.302 0-1.767 1.433-3.2 3.2-3.2 0.903 0 1.719 0.374 2.301 0.976l11.201 11.201c0.579 0.579 0.937 1.379 0.937 2.262s-0.358 1.683-0.937 2.262l-11.2 11.2c-0.583 0.603-1.398 0.977-2.302 0.977-1.767 0-3.2-1.433-3.2-3.2 0-0.903 0.374-1.719 0.976-2.301l5.739-5.738z"></path>
</svg>
