<!-- Generated by IcoMoon.io -->
<svg version="1.1" xmlns="http://www.w3.org/2000/svg" width="28" height="32" viewBox="0 0 28 32">
<title>icon-person</title>
<path d="M9.47 14.598c-1.636-1.331-2.672-3.343-2.672-5.598 0-3.976 3.224-7.2 7.2-7.2s7.2 3.224 7.2 7.2c0 3.976-3.222 7.199-7.198 7.2-5.965 0-10.8 4.835-10.8 10.8 0 0.44 0.36 0.8 0.8 0.8h20c0.442 0 0.8-0.358 0.8-0.8 0-0.002 0-0.005 0-0.007 0-3.842-2.008-7.215-5.032-9.127-0.385-0.242-0.607-0.617-0.607-1.043 0-0.663 0.537-1.2 1.2-1.2 0.236 0 0.456 0.068 0.642 0.186 3.744 2.366 6.197 6.489 6.197 11.184 0 0.003 0 0.005 0 0.008 0 1.767-1.433 3.2-3.2 3.2h-20c-1.767 0-3.2-1.433-3.2-3.2 0-5.665 3.568-10.497 8.579-12.372zM14 13.8c2.651 0 4.8-2.149 4.8-4.8s-2.149-4.8-4.8-4.8c-2.651 0-4.8 2.149-4.8 4.8s2.149 4.8 4.8 4.8z"></path>
</svg>
