<!-- Generated by IcoMoon.io -->
<svg version="1.1" xmlns="http://www.w3.org/2000/svg" width="32" height="32" viewBox="0 0 32 32">
<title>icon-plus-circle</title>
<path d="M16 32c-8.837 0-16-7.163-16-16s7.163-16 16-16 16 7.163 16 16-7.163 16-16 16zM16 28.8c7.069 0 12.8-5.731 12.8-12.8s-5.731-12.8-12.8-12.8c-7.069 0-12.8 5.731-12.8 12.8s5.731 12.8 12.8 12.8zM14.4 14.4v-4c0-0.884 0.716-1.6 1.6-1.6s1.6 0.716 1.6 1.6v4h4c0.884 0 1.6 0.716 1.6 1.6s-0.716 1.6-1.6 1.6h-4v4c0 0.884-0.716 1.6-1.6 1.6s-1.6-0.716-1.6-1.6v-4h-4c-0.884 0-1.6-0.716-1.6-1.6s0.716-1.6 1.6-1.6h4z"></path>
</svg>
