<svg xmlns="http://www.w3.org/2000/svg" width="22" height="22" viewBox="0 0 22 22">
    <path fill="#000" fill-rule="nonzero" d="M11 22C4.925 22 0 17.075 0 11S4.925 0 11 0s11 4.925 11 11-4.925 11-11 11zm0-2.2a8.8 8.8 0 1 0 0-17.6 8.8 8.8 0 0 0 0 17.6zm.906-4.498c0 .603-.5 1.098-1.108 1.098-.61 0-1.11-.493-1.11-1.098 0-.602.5-1.095 1.11-1.095.608 0 1.108.493 1.108 1.095zM14.3 9.175c0 1.74-2.015 2.409-2.448 3.036-.324.47-.215 1.126-1.108 1.126-.582 0-.867-.469-.867-.896 0-1.594 2.368-1.954 2.368-3.266 0-.722-.487-1.15-1.299-1.15-1.731 0-1.055 1.766-2.367 1.766-.472 0-.879-.282-.879-.817C7.7 7.662 9.215 6.5 10.865 6.5c1.731 0 3.435.79 3.435 2.675z"/>
</svg>
