<svg xmlns="http://www.w3.org/2000/svg" width="42" height="42" viewBox="0 0 42 42">
    <title>icon-daily-status</title>
    <g fill="none" fill-rule="evenodd">
        <circle cx="21" cy="21" r="20.5" stroke="#E8EBED"/>
        <path d="M13 13h16v16H13z"/>
        <path fill="#8E979E" fill-rule="nonzero" d="M23 14h1.5a.5.5 0 0 1 .5.5v4.145a3.5 3.5 0 0 0-1-.145V18H14v5h6.645c.107.361.272.698.482 1H13.5a.5.5 0 0 1-.5-.5v-9a.5.5 0 0 1 .5-.5H15v-.5a.5.5 0 0 1 1 0v.5h6v-.5a.5.5 0 0 1 1 0v.5zm-9 1v2h10v-2H14zm8.3 8.832a2.5 2.5 0 1 1 1.7.668 3.5 3.5 0 0 0-3.5 3.5h7a3.495 3.495 0 0 0-1.52-2.887.5.5 0 0 1 .565-.824A4.495 4.495 0 0 1 28.5 28v.5a.5.5 0 0 1-.5.5h-8a.5.5 0 0 1-.5-.5V28a4.501 4.501 0 0 1 2.8-4.168zM24 23.5a1.5 1.5 0 1 0 0-3 1.5 1.5 0 0 0 0 3z"/>
    </g>
</svg>
