<!-- Generated by IcoMoon.io -->
<svg version="1.1" xmlns="http://www.w3.org/2000/svg" width="32" height="32" viewBox="0 0 32 32">
<title>icon-denied</title>
<path d="M16 32c-8.837 0-16-7.163-16-16s7.163-16 16-16c8.837 0 16 7.163 16 16s-7.163 16-16 16zM16 29.6c7.511 0 13.6-6.089 13.6-13.6s-6.089-13.6-13.6-13.6c-7.511 0-13.6 6.089-13.6 13.6s6.089 13.6 13.6 13.6zM16 14.020l3.010-3.010c0.253-0.253 0.603-0.41 0.99-0.41 0.773 0 1.4 0.627 1.4 1.4 0 0.387-0.157 0.737-0.41 0.99l-3.010 3.010 3.010 3.010c0.253 0.253 0.41 0.603 0.41 0.99 0 0.773-0.627 1.4-1.4 1.4-0.387 0-0.737-0.157-0.99-0.41l-3.010-3.010-3.010 3.010c-0.253 0.253-0.603 0.41-0.99 0.41-0.773 0-1.4-0.627-1.4-1.4 0-0.387 0.157-0.737 0.41-0.99l3.010-3.010-3.010-3.010c-0.253-0.253-0.41-0.603-0.41-0.99 0-0.773 0.627-1.4 1.4-1.4 0.387 0 0.737 0.157 0.99 0.41l3.010 3.010z"></path>
</svg>
