<svg xmlns="http://www.w3.org/2000/svg" width="16" height="16" viewBox="0 0 16 16">
    <g fill="#2F383F" fill-rule="nonzero">
        <path d="M1.309 14h13.382l-1.5-3H2.809l-1.5 3zM2.5 10h11a.5.5 0 0 1 .447.276l2 4A.5.5 0 0 1 15.5 15H.5a.5.5 0 0 1-.447-.724l2-4A.5.5 0 0 1 2.5 10zM12 4V2a.5.5 0 1 0-1 0v2H9a.5.5 0 0 0 0 1h2v2a.5.5 0 1 0 1 0V5h2a.5.5 0 1 0 0-1h-2z"/>
        <path d="M14 10.6c0 .22-.224.4-.5.4s-.5-.18-.5-.4V7.4c0-.22.224-.4.5-.4s.5.18.5.4v3.2zM3 10.5a.5.5 0 1 1-1 0v-8a.5.5 0 0 1 1 0v8z"/>
        <path d="M8.563 2c.241 0 .437.224.437.5s-.196.5-.438.5H2.439C2.196 3 2 2.776 2 2.5s.196-.5.438-.5h6.124zM14.125 12c.483 0 .875.224.875.5s-.392.5-.875.5H1.875C1.392 13 1 12.776 1 12.5s.392-.5.875-.5h12.25z"/>
        <path d="M7.5 10.5a.5.5 0 1 1 1 0v4a.5.5 0 1 1-1 0v-4zM5.015 10.379a.5.5 0 1 1 .97.242l-1 4a.5.5 0 0 1-.97-.242l1-4zM10.015 10.621a.5.5 0 0 1 .97-.242l1 4a.5.5 0 0 1-.97.242l-1-4z"/>
    </g>
</svg>
