<svg xmlns="http://www.w3.org/2000/svg" width="16" height="14" viewBox="0 0 16 14">
    <g fill="none" fill-rule="evenodd">
        <path d="M0-1h16v16H0z"/>
        <path fill="#2F383F" fill-rule="nonzero" d="M1.161 8.5H2.19a6.003 6.003 0 0 0 11.622 0h1.028a7.003 7.003 0 0 1-13.678 0zm0-3a7.003 7.003 0 0 1 13.678 0H13.81a6.003 6.003 0 0 0-11.622 0H1.161zm3.255 1.777A.5.5 0 0 1 4 7.5H1a.5.5 0 0 1 0-1h2.732l.852-1.277a.5.5 0 0 1 .873.074l1.476 3.322 1.593-4.777a.5.5 0 0 1 .93-.045l1.632 3.67.496-.744A.5.5 0 0 1 12 6.5h3a.5.5 0 1 1 0 1h-2.732l-.852 1.277a.5.5 0 0 1-.873-.074L9.067 5.381l-1.593 4.777a.5.5 0 0 1-.93.045l-1.632-3.67-.496.744z"/>
    </g>
</svg>
