<!-- Generated by IcoMoon.io -->
<svg version="1.1" xmlns="http://www.w3.org/2000/svg" width="32" height="32" viewBox="0 0 32 32">
<title>icon-search</title>
<path fill="#88B2FC" d="M23.498 20.67l7.916 7.916c0.347 0.359 0.561 0.849 0.561 1.389 0 1.105-0.895 2-2 2-0.54 0-1.030-0.214-1.39-0.562l-7.915-7.915c-2.12 1.564-4.785 2.503-7.669 2.503-7.18 0-13-5.82-13-13s5.82-13 13-13c7.18 0 13 5.82 13 13 0 2.884-0.939 5.549-2.528 7.705zM13 22c4.971 0 9-4.029 9-9s-4.029-9-9-9c-4.971 0-9 4.029-9 9s4.029 9 9 9z"></path>
</svg>
