<svg xmlns="http://www.w3.org/2000/svg" width="42" height="42" viewBox="0 0 42 42">
    <g fill="none" fill-rule="evenodd">
        <circle cx="21" cy="21" r="20.5" stroke="#E8EBED"/>
        <path d="M13 13h16v16H13z"/>
        <path fill="#8E979E" fill-rule="nonzero" d="M24 18.5c-.345 0-.68.039-1.002.112L23 18.5a4.5 4.5 0 0 0-9 0c0 1.619 1.497 4.38 4.5 8.196.508-.646.974-1.262 1.396-1.848.15.333.34.644.562.928a61.827 61.827 0 0 1-1.568 2.037.5.5 0 0 1-.78 0C14.707 23.566 13 20.495 13 18.5a5.5 5.5 0 0 1 11 0zM18.5 21a2.5 2.5 0 1 1 0-5 2.5 2.5 0 0 1 0 5zm0-1a1.5 1.5 0 1 0 0-3 1.5 1.5 0 0 0 0 3zm8.3 5.1c.019.014.037.03.054.046l2 2a.5.5 0 0 1-.708.708l-2-2a.504.504 0 0 1-.046-.054 3.5 3.5 0 1 1 .7-.7zm-2.8.4a2.5 2.5 0 1 0 0-5 2.5 2.5 0 0 0 0 5z"/>
    </g>
</svg>
