<svg xmlns="http://www.w3.org/2000/svg" width="42" height="42" viewBox="0 0 42 42">
    <g fill="none" fill-rule="evenodd">
        <circle cx="21" cy="21" r="20.5" stroke="#E8EBED"/>
        <path d="M13 13h16v16H13z"/>
        <path fill="#8E979E" fill-rule="nonzero" d="M17.75 22.707l-.646.647a.5.5 0 0 1-.708-.708l.647-.646-.647-.646a.5.5 0 1 1 .708-.708l.646.647.646-.647a.5.5 0 1 1 .708.708l-.647.646.647.646a.5.5 0 0 1-.708.708l-.646-.647zM27 28V18a.5.5 0 1 1 1 0v10.5a.5.5 0 0 1-.5.5h-13a.5.5 0 0 1-.5-.5v-15a.5.5 0 0 1 .5-.5h10a.5.5 0 0 1 .354.146l3 3A.5.5 0 0 1 27.5 17h-3a.5.5 0 0 1-.5-.5V14h-9v14h12zm-2-12h1.293L25 14.707V16zm-4 10a.5.5 0 1 1 0-1h4a.5.5 0 1 1 0 1h-4zm0-3.5a.5.5 0 0 1 0-1h4a.5.5 0 1 1 0 1h-4zm0-3.5a.5.5 0 0 1 0-1h4a.5.5 0 1 1 0 1h-4zm-2.354 5.146a.5.5 0 0 1 .708.708l-1.5 1.5a.5.5 0 0 1-.708 0l-.75-.75a.5.5 0 0 1 .708-.708l.396.397 1.146-1.147zm0-7a.5.5 0 1 1 .708.708l-1.5 1.5a.5.5 0 0 1-.708 0l-.75-.75a.5.5 0 1 1 .708-.708l.396.397 1.146-1.147z"/>
    </g>
</svg>
