<svg xmlns="http://www.w3.org/2000/svg" width="42" height="42" viewBox="0 0 42 42">
    <g fill="none" fill-rule="evenodd">
        <circle cx="21" cy="21" r="20.5" stroke="#E8EBED"/>
        <path d="M13 13h16v16H13z"/>
        <path fill="#8E979E" fill-rule="nonzero" d="M19 23.917c.35-.059.689-.147 1.015-.264a4 4 0 1 0 3.639-3.639c.116-.325.204-.664.263-1.013L24 19a5 5 0 1 1-5 4.917zm5 .79l-.896.897a.5.5 0 0 1-.708-.708l.897-.896-.897-.896a.5.5 0 1 1 .708-.708l.896.897.896-.897a.5.5 0 0 1 .708.708l-.897.896.897.896a.5.5 0 0 1-.708.708L24 24.707zM18 23a5 5 0 1 1 0-10 5 5 0 0 1 0 10zm0-1a4 4 0 1 0 0-8 4 4 0 0 0 0 8zm.5-2a.5.5 0 0 1-1 0v-2a.5.5 0 0 1 1 0v2zm-.5-3a.6.6 0 1 1 0-1.2.6.6 0 0 1 0 1.2z"/>
    </g>
</svg>
