<!-- Generated by IcoMoon.io -->
<svg version="1.1" xmlns="http://www.w3.org/2000/svg" width="37" height="32" viewBox="0 0 37 32">
<title>icon-financial</title>
<path d="M19.339 3.593c-0.567-0.405-1.577-0.402-2.139 0l-10.638 7.607h23.44l-10.663-7.607zM15.605 1.36c1.515-1.081 3.806-1.086 5.328 0l12.281 8.761c2.121 1.513 1.374 3.822-1.23 3.822h-27.397c-2.599 0-3.376-2.288-1.234-3.819l12.251-8.763zM4.571 29.943c-0.757 0-1.371-0.614-1.371-1.371s0.614-1.371 1.371-1.371h27.429c0.757 0 1.371 0.614 1.371 1.371s-0.614 1.371-1.371 1.371h-27.429zM13.486 16h2.743v9.143h-2.743v-9.143zM6.629 16h2.743v9.143h-2.743v-9.143zM20.343 16h2.743v9.143h-2.743v-9.143zM27.2 16h2.743v9.143h-2.743v-9.143z"></path>
</svg>
