<svg id="icon-billing-summary" xmlns="http://www.w3.org/2000/svg" width="42" height="42" viewBox="0 0 42 42">
    <g fill="none" fill-rule="evenodd">
        <circle cx="21" cy="21" r="20.5" stroke="#E8EBED"/>
        <path d="M13 13h16v16H13z"/>
        <path fill="#8E979E" fill-rule="nonzero" d="M15.724 27.947A.5.5 0 0 1 15 27.5v-14a.5.5 0 0 1 .5-.5h11a.5.5 0 0 1 .5.5v14a.5.5 0 0 1-.724.447l-1.74-.87-1.259.839a.5.5 0 0 1-.5.031L21 27.06l-1.776.888a.5.5 0 0 1-.501-.031l-1.259-.839-1.74.87zM26 14H16v12.691l1.276-.638a.5.5 0 0 1 .501.031l1.259.839 1.74-.87a.5.5 0 0 1 .448 0l1.74.87 1.259-.839a.5.5 0 0 1 .5-.031L26 26.69V14zm-5.5 8a.5.5 0 0 1 0-1H24a.5.5 0 1 1 0 1h-3.5zm0-2a.5.5 0 0 1 0-1H24a.5.5 0 1 1 0 1h-3.5zm0-2a.5.5 0 0 1 0-1H24a.5.5 0 1 1 0 1h-3.5zM18 22a.5.5 0 0 1 0-1h.5a.5.5 0 0 1 0 1H18zm0-2a.5.5 0 0 1 0-1h.5a.5.5 0 0 1 0 1H18zm0-2a.5.5 0 0 1 0-1h.5a.5.5 0 0 1 0 1H18z"/>
    </g>
</svg>
