<!-- Generated by IcoMoon.io -->
<svg version="1.1" xmlns="http://www.w3.org/2000/svg" width="38" height="32" viewBox="0 0 38 32">
<title>icon-accounts</title>
<path d="M10.182 5.818v-4.364c0-0.803 0.651-1.455 1.455-1.455h14.545c0.803 0 1.455 0.651 1.455 1.455v4.364h0.727c0.803 0 1.455 0.651 1.455 1.455s-0.651 1.455-1.455 1.455h-25.455v20.364h32v-20.364h-1.455c-0.803 0-1.455-0.651-1.455-1.455s0.651-1.455 1.455-1.455h1.455c1.607 0 2.909 1.302 2.909 2.909v20.364c0 1.607-1.302 2.909-2.909 2.909h-32c-1.607 0-2.909-1.302-2.909-2.909v-20.364c0-1.607 1.302-2.909 2.909-2.909h7.273zM13.091 2.909v2.909h11.636v-2.909h-11.636z"></path>
</svg>
