<!-- Generated by IcoMoon.io -->
<svg version="1.1" xmlns="http://www.w3.org/2000/svg" width="32" height="32" viewBox="0 0 32 32">
<title>icon-filter</title>
<path d="M7.111 4.747c2.092 0.754 3.56 2.721 3.56 5.031s-1.468 4.277-3.523 5.019l-0.037 15.425c0 0.982-0.796 1.778-1.778 1.778s-1.778-0.796-1.778-1.778v-15.413c-2.092-0.754-3.56-2.721-3.56-5.031s1.468-4.277 3.523-5.019l0.037-2.981c0-0.982 0.796-1.778 1.778-1.778s1.778 0.796 1.778 1.778v2.969zM5.333 11.556c0.982 0 1.778-0.796 1.778-1.778s-0.796-1.778-1.778-1.778c-0.982 0-1.778 0.796-1.778 1.778s0.796 1.778 1.778 1.778zM17.778 17.191c2.092 0.754 3.56 2.721 3.56 5.031s-1.468 4.277-3.523 5.019l-0.037 2.981c0 0.982-0.796 1.778-1.778 1.778s-1.778-0.796-1.778-1.778v-2.969c-2.092-0.754-3.56-2.721-3.56-5.031s1.468-4.277 3.523-5.019l0.037-15.425c0-0.982 0.796-1.778 1.778-1.778s1.778 0.796 1.778 1.778v15.413zM16 24c0.982 0 1.778-0.796 1.778-1.778s-0.796-1.778-1.778-1.778c-0.982 0-1.778 0.796-1.778 1.778s0.796 1.778 1.778 1.778zM28.444 4.747c2.092 0.754 3.56 2.721 3.56 5.031s-1.468 4.277-3.523 5.019l-0.037 15.425c0 0.982-0.796 1.778-1.778 1.778s-1.778-0.796-1.778-1.778v-15.413c-2.092-0.754-3.56-2.721-3.56-5.031s1.468-4.277 3.523-5.019l0.037-2.981c0-0.982 0.796-1.778 1.778-1.778s1.778 0.796 1.778 1.778v2.969zM26.667 11.556c0.982 0 1.778-0.796 1.778-1.778s-0.796-1.778-1.778-1.778c-0.982 0-1.778 0.796-1.778 1.778s0.796 1.778 1.778 1.778z"></path>
</svg>
